<svg version="1.1" id="Layer_1" xmlns="http://www.w3.org/2000/svg" xmlns:xlink="http://www.w3.org/1999/xlink" x="0px" y="0px"
	 width="100%" viewBox="0 0 1111 1113" enable-background="new 0 0 1111 1113" xml:space="preserve">
<path fill="#FFFFFF" opacity="1.000000" stroke="none" 
	d="
M340.000000,1114.000000 
	C227.023788,1114.000000 114.047562,1114.000000 1.035674,1114.000000 
	C1.035674,743.101868 1.035674,372.203735 1.035674,1.000000 
	C180.693405,1.000000 360.386993,1.000000 540.301270,1.331704 
	C521.140198,3.424175 501.964264,6.437476 483.387726,12.346692 
	C426.370392,30.483946 379.387939,62.982605 343.392365,110.974113 
	C327.912018,131.613480 315.637299,153.940598 308.348145,179.200562 
	C306.727570,186.139755 304.262939,192.762207 304.095367,199.442291 
	C303.398804,227.209900 303.394806,254.994888 303.031250,283.246429 
	C302.967133,300.834259 303.008423,317.949127 302.962097,335.520203 
	C302.955261,356.019684 303.036102,376.062988 303.015198,396.558594 
	C302.906647,417.366150 302.899902,437.721466 302.912781,458.539032 
	C302.965637,502.472565 303.118805,545.944153 302.979980,589.414856 
	C302.913391,610.263367 303.705597,631.007629 309.357452,651.193481 
	C315.833252,674.322144 326.592468,695.372803 340.523773,714.980103 
	C362.963043,746.561768 390.545715,772.269592 424.283173,791.462769 
	C445.703033,803.648376 468.517426,812.129333 492.118408,819.177002 
	C492.092102,835.394409 492.092102,851.132202 492.092102,866.959045 
	C489.089325,866.959045 486.548798,867.362671 484.178223,866.898621 
	C447.414917,859.700562 412.796967,847.041321 381.494598,826.093628 
	C336.175781,795.766052 300.891663,756.699768 278.324768,706.750000 
	C266.888123,681.436096 258.497711,655.099731 257.618103,627.145386 
	C256.701447,598.015442 256.969604,568.845459 256.887482,539.692566 
	C256.790833,505.371521 257.362793,471.040741 256.714569,436.731750 
	C256.253357,412.320679 230.689468,396.072205 207.986191,405.270935 
	C193.916260,410.971649 183.841675,422.942719 183.974091,444.688965 
	C184.318024,501.172089 183.943054,557.661438 184.600403,614.139648 
	C184.796707,631.006409 186.425323,648.017761 189.222061,664.656189 
	C193.666473,691.097046 202.224808,716.439453 213.585159,740.788330 
	C229.861008,775.672668 251.929123,806.568359 278.050598,834.683167 
	C312.003326,871.226868 352.316620,898.722107 398.055786,918.275635 
	C426.177948,930.297913 455.010406,940.305603 485.486572,944.471375 
	C491.391571,945.278503 492.780579,947.935730 492.722595,953.216675 
	C492.536011,970.210388 492.653687,987.207336 492.614044,1004.202942 
	C492.609894,1005.990845 492.340515,1007.778076 492.159912,1009.984131 
	C487.050812,1010.339417 482.264862,1010.963806 477.479706,1010.958008 
	C444.989655,1010.918457 412.499390,1010.600952 380.010132,1010.695740 
	C368.723480,1010.728638 357.058502,1010.017273 346.223358,1012.506104 
	C308.532135,1021.163879 294.104767,1063.772339 312.591278,1091.697144 
	C319.461212,1102.074463 328.900482,1108.979858 340.000000,1114.000000 
z"/>
<path fill="#FFFFFF" opacity="1.000000" stroke="none" 
	d="
M582.000000,0.999999 
	C758.629089,1.000000 935.258118,1.000000 1111.943604,1.000000 
	C1111.943604,371.883484 1111.943604,742.767029 1111.943604,1114.000000 
	C1002.973389,1114.000000 893.946411,1114.000000 784.619080,1113.681152 
	C807.468872,1105.570679 819.659973,1081.777710 819.880310,1065.746948 
	C820.294922,1035.585083 795.974365,1010.709839 765.499634,1010.246338 
	C741.511047,1009.881470 717.508911,1010.376343 693.513000,1010.532471 
	C675.350342,1010.650635 657.188232,1010.933289 639.025696,1010.945862 
	C631.621643,1010.950989 631.376831,1010.657288 630.930725,1003.461975 
	C630.581055,997.820618 630.671387,992.148926 630.657471,986.490479 
	C630.624878,973.198975 630.647034,959.907349 630.647034,946.529358 
	C633.557068,945.867920 635.481750,945.465271 637.388855,944.991638 
	C658.787048,939.677856 680.526001,935.440063 701.508606,928.809204 
	C747.823059,914.173157 789.266357,890.190063 825.496277,857.963501 
	C869.531860,818.793701 902.768677,771.765137 922.714294,716.007568 
	C932.878296,687.593872 939.997925,658.368164 940.184143,627.931641 
	C940.413574,590.437561 940.322937,552.941345 940.314453,515.446045 
	C940.308533,488.969757 940.787598,462.475800 939.981323,436.022339 
	C939.244995,411.862000 911.018860,395.303772 889.027100,405.656586 
	C875.071106,412.226501 867.246033,423.349060 867.234741,439.197906 
	C867.192139,498.858551 867.378723,558.520325 867.025391,618.178955 
	C866.953796,630.273743 865.779297,642.515991 863.607849,654.415527 
	C857.139709,689.861023 842.288025,722.012390 821.782166,751.340149 
	C779.933533,811.192444 722.278687,847.908997 651.719116,864.981567 
	C645.237671,866.549866 638.467285,866.924011 630.996582,867.969421 
	C630.996582,850.519226 630.996582,834.401001 631.358276,818.123840 
	C653.996338,813.233887 675.135071,805.078247 695.168335,794.589722 
	C738.057007,772.135254 771.809631,739.850403 796.096863,697.777405 
	C811.346436,671.360474 820.750977,643.196472 820.971924,612.573608 
	C821.343018,561.127625 821.092896,509.677094 821.094482,457.745544 
	C821.078674,437.187958 821.072449,417.113281 821.215454,396.651855 
	C821.252380,376.131927 821.140076,355.998749 821.106079,335.410889 
	C821.151978,317.571472 821.119568,300.186707 821.266846,282.448914 
	C821.537292,259.620728 821.855896,237.143280 821.629456,214.671341 
	C821.501892,202.018921 819.495667,189.561798 814.634521,177.313248 
	C814.282104,175.794113 814.034424,174.656296 813.686951,173.549805 
	C803.772095,141.977783 786.198792,114.805832 764.235413,90.568336 
	C735.862976,59.258270 701.761963,35.739799 662.330994,20.344933 
	C642.048584,12.426180 621.265625,6.062909 599.487854,3.541387 
	C593.638916,2.864176 587.828247,1.856157 582.000000,0.999999 
z"/>
<path fill="#304352" opacity="1.000000" stroke="none" 
	d="
M630.996582,818.282837 
	C630.996582,834.401001 630.996582,850.519226 630.996582,867.969421 
	C638.467285,866.924011 645.237671,866.549866 651.719116,864.981567 
	C722.278687,847.908997 779.933533,811.192444 821.782166,751.340149 
	C842.288025,722.012390 857.139709,689.861023 863.607849,654.415527 
	C865.779297,642.515991 866.953796,630.273743 867.025391,618.178955 
	C867.378723,558.520325 867.192139,498.858551 867.234741,439.197906 
	C867.246033,423.349060 875.071106,412.226501 889.027100,405.656586 
	C911.018860,395.303772 939.244995,411.862000 939.981323,436.022339 
	C940.787598,462.475800 940.308533,488.969757 940.314453,515.446045 
	C940.322937,552.941345 940.413574,590.437561 940.184143,627.931641 
	C939.997925,658.368164 932.878296,687.593872 922.714294,716.007568 
	C902.768677,771.765137 869.531860,818.793701 825.496277,857.963501 
	C789.266357,890.190063 747.823059,914.173157 701.508606,928.809204 
	C680.526001,935.440063 658.787048,939.677856 637.388855,944.991638 
	C635.481750,945.465271 633.557068,945.867920 630.647034,946.529358 
	C630.647034,959.907349 630.624878,973.198975 630.657471,986.490479 
	C630.671387,992.148926 630.581055,997.820618 630.930725,1003.461975 
	C631.376831,1010.657288 631.621643,1010.950989 639.025696,1010.945862 
	C657.188232,1010.933289 675.350342,1010.650635 693.513000,1010.532471 
	C717.508911,1010.376343 741.511047,1009.881470 765.499634,1010.246338 
	C795.974365,1010.709839 820.294922,1035.585083 819.880310,1065.746948 
	C819.659973,1081.777710 807.468872,1105.570679 784.159363,1113.681152 
	C636.312439,1114.000000 488.624878,1114.000000 340.468658,1114.000000 
	C328.900482,1108.979858 319.461212,1102.074463 312.591278,1091.697144 
	C294.104767,1063.772339 308.532135,1021.163879 346.223358,1012.506104 
	C357.058502,1010.017273 368.723480,1010.728638 380.010132,1010.695740 
	C412.499390,1010.600952 444.989655,1010.918457 477.479706,1010.958008 
	C482.264862,1010.963806 487.050812,1010.339417 492.159912,1009.984131 
	C492.340515,1007.778076 492.609894,1005.990845 492.614044,1004.202942 
	C492.653687,987.207336 492.536011,970.210388 492.722595,953.216675 
	C492.780579,947.935730 491.391571,945.278503 485.486572,944.471375 
	C455.010406,940.305603 426.177948,930.297913 398.055786,918.275635 
	C352.316620,898.722107 312.003326,871.226868 278.050598,834.683167 
	C251.929123,806.568359 229.861008,775.672668 213.585159,740.788330 
	C202.224808,716.439453 193.666473,691.097046 189.222061,664.656189 
	C186.425323,648.017761 184.796707,631.006409 184.600403,614.139648 
	C183.943054,557.661438 184.318024,501.172089 183.974091,444.688965 
	C183.841675,422.942719 193.916260,410.971649 207.986191,405.270935 
	C230.689468,396.072205 256.253357,412.320679 256.714569,436.731750 
	C257.362793,471.040741 256.790833,505.371521 256.887482,539.692566 
	C256.969604,568.845459 256.701447,598.015442 257.618103,627.145386 
	C258.497711,655.099731 266.888123,681.436096 278.324768,706.750000 
	C300.891663,756.699768 336.175781,795.766052 381.494598,826.093628 
	C412.796967,847.041321 447.414917,859.700562 484.178223,866.898621 
	C486.548798,867.362671 489.089325,866.959045 492.092102,866.959045 
	C492.092102,851.132202 492.092102,835.394409 492.565125,819.196655 
	C507.725159,820.337708 522.386353,822.915344 537.105469,823.305115 
	C557.853149,823.854370 578.660645,823.164124 599.409058,822.246277 
	C609.976013,821.778748 620.469727,819.656860 630.996582,818.282837 
z"/>
<path fill="#0696D2" opacity="1.000000" stroke="none" 
	d="
M821.087097,282.801941 
	C821.119568,300.186707 821.151978,317.571472 820.636414,335.430847 
	C815.258789,335.901672 810.429199,335.894043 805.599609,335.894684 
	C757.636963,335.901031 709.674194,335.859619 661.711731,335.953461 
	C650.830505,335.974762 640.700928,338.589966 634.092896,348.096344 
	C626.996582,358.305328 625.888000,369.411499 631.487305,380.703735 
	C637.122009,392.067657 646.922058,396.785370 659.194153,396.811646 
	C713.151428,396.927124 767.108826,396.969666 821.066223,397.038635 
	C821.072449,417.113281 821.078674,437.187958 820.617920,457.758667 
	C692.376221,458.273590 564.601624,458.314056 436.826996,458.299774 
	C392.182373,458.294800 347.537781,458.154999 302.893158,458.076752 
	C302.899902,437.721466 302.906647,417.366150 303.420105,396.588379 
	C307.400909,396.419830 310.874969,396.893402 314.349121,396.894531 
	C364.804291,396.911102 415.259521,396.912018 465.714539,396.799927 
	C478.613190,396.771301 488.871735,389.635742 493.573944,377.744293 
	C498.489685,365.312836 495.968353,354.252838 486.955414,344.588867 
	C480.709808,337.892090 472.532837,335.945221 463.826477,335.933167 
	C415.535614,335.866394 367.244568,335.931488 318.953674,335.871124 
	C313.652008,335.864502 308.351044,335.345398 303.049744,335.064026 
	C303.008423,317.949127 302.967133,300.834259 303.491089,283.265442 
	C315.372925,282.606842 326.688904,282.263855 338.006042,282.222137 
	C379.829071,282.067993 421.653259,282.133026 463.475403,281.864746 
	C481.150604,281.751373 494.534637,269.392548 495.910492,251.657913 
	C496.822876,239.896713 496.864746,228.035812 496.660797,216.230530 
	C496.502380,207.063385 493.707520,198.700546 487.258728,191.605621 
	C479.184875,182.722839 469.278992,178.916367 457.522705,178.922607 
	C407.868622,178.948990 358.214508,178.919418 308.560425,178.910309 
	C315.637299,153.940598 327.912018,131.613480 343.392365,110.974113 
	C379.387939,62.982605 426.370392,30.483946 483.387726,12.346692 
	C501.964264,6.437476 521.140198,3.424175 540.760986,1.331704 
	C554.354248,1.000000 567.708435,1.000000 581.531372,0.999999 
	C587.828247,1.856157 593.638916,2.864176 599.487854,3.541387 
	C621.265625,6.062909 642.048584,12.426180 662.330994,20.344933 
	C701.761963,35.739799 735.862976,59.258270 764.235413,90.568336 
	C786.198792,114.805832 803.772095,141.977783 813.686951,173.549805 
	C814.034424,174.656296 814.282104,175.794113 814.142151,177.401855 
	C807.406799,178.231461 801.106140,178.861862 794.804199,178.875610 
	C751.513672,178.970001 708.222595,178.851959 664.932251,178.979630 
	C645.167542,179.037918 629.453918,192.296616 628.327698,210.694229 
	C627.476807,224.593918 627.525085,238.630493 628.380981,252.531784 
	C629.416199,269.343842 643.013611,281.702026 659.800903,281.839050 
	C713.562012,282.277832 767.324890,282.497620 821.087097,282.801941 
z"/>
<path fill="#F8C705" opacity="1.000000" stroke="none" 
	d="
M302.912781,458.539032 
	C347.537781,458.154999 392.182373,458.294800 436.826996,458.299774 
	C564.601624,458.314056 692.376221,458.273590 820.627441,458.241577 
	C821.092896,509.677094 821.343018,561.127625 820.971924,612.573608 
	C820.750977,643.196472 811.346436,671.360474 796.096863,697.777405 
	C771.809631,739.850403 738.057007,772.135254 695.168335,794.589722 
	C675.135071,805.078247 653.996338,813.233887 631.358276,818.123901 
	C620.469727,819.656860 609.976013,821.778748 599.409058,822.246277 
	C578.660645,823.164124 557.853149,823.854370 537.105469,823.305115 
	C522.386353,822.915344 507.725159,820.337708 492.591431,818.717041 
	C468.517426,812.129333 445.703033,803.648376 424.283173,791.462769 
	C390.545715,772.269592 362.963043,746.561768 340.523773,714.980103 
	C326.592468,695.372803 315.833252,674.322144 309.357452,651.193481 
	C303.705597,631.007629 302.913391,610.263367 302.979980,589.414856 
	C303.118805,545.944153 302.965637,502.472565 302.912781,458.539032 
z"/>
<path fill="#2F4252" opacity="1.000000" stroke="none" 
	d="
M308.348145,179.200562 
	C358.214508,178.919418 407.868622,178.948990 457.522705,178.922607 
	C469.278992,178.916367 479.184875,182.722839 487.258728,191.605621 
	C493.707520,198.700546 496.502380,207.063385 496.660797,216.230530 
	C496.864746,228.035812 496.822876,239.896713 495.910492,251.657913 
	C494.534637,269.392548 481.150604,281.751373 463.475403,281.864746 
	C421.653259,282.133026 379.829071,282.067993 338.006042,282.222137 
	C326.688904,282.263855 315.372925,282.606842 303.596558,282.792542 
	C303.394806,254.994888 303.398804,227.209900 304.095367,199.442291 
	C304.262939,192.762207 306.727570,186.139755 308.348145,179.200562 
z"/>
<path fill="#2F4352" opacity="1.000000" stroke="none" 
	d="
M302.962097,335.520203 
	C308.351044,335.345398 313.652008,335.864502 318.953674,335.871124 
	C367.244568,335.931488 415.535614,335.866394 463.826477,335.933167 
	C472.532837,335.945221 480.709808,337.892090 486.955414,344.588867 
	C495.968353,354.252838 498.489685,365.312836 493.573944,377.744293 
	C488.871735,389.635742 478.613190,396.771301 465.714539,396.799927 
	C415.259521,396.912018 364.804291,396.911102 314.349121,396.894531 
	C310.874969,396.893402 307.400909,396.419830 303.521881,396.136108 
	C303.036102,376.062988 302.955261,356.019684 302.962097,335.520203 
z"/>
<path fill="#2F4352" opacity="1.000000" stroke="none" 
	d="
M821.266846,282.448914 
	C767.324890,282.497620 713.562012,282.277832 659.800903,281.839050 
	C643.013611,281.702026 629.416199,269.343842 628.380981,252.531784 
	C627.525085,238.630493 627.476807,224.593918 628.327698,210.694229 
	C629.453918,192.296616 645.167542,179.037918 664.932251,178.979630 
	C708.222595,178.851959 751.513672,178.970001 794.804199,178.875610 
	C801.106140,178.861862 807.406799,178.231461 814.200317,177.797791 
	C819.495667,189.561798 821.501892,202.018921 821.629456,214.671341 
	C821.855896,237.143280 821.537292,259.620728 821.266846,282.448914 
z"/>
<path fill="#2F4352" opacity="1.000000" stroke="none" 
	d="
M821.215454,396.651855 
	C767.108826,396.969666 713.151428,396.927124 659.194153,396.811646 
	C646.922058,396.785370 637.122009,392.067657 631.487305,380.703735 
	C625.888000,369.411499 626.996582,358.305328 634.092896,348.096344 
	C640.700928,338.589966 650.830505,335.974762 661.711731,335.953461 
	C709.674194,335.859619 757.636963,335.901031 805.599609,335.894684 
	C810.429199,335.894043 815.258789,335.901672 820.558044,335.885498 
	C821.140076,355.998749 821.252380,376.131927 821.215454,396.651855 
z"/>
</svg>